<svg width="48" height="48" viewBox="0 0 48 48" fill="none" xmlns="http://www.w3.org/2000/svg">
<rect width="48" height="48" rx="10" fill="#DF704D"/>
<path fill-rule="evenodd" clip-rule="evenodd" d="M23.0825 14.6C22.3212 13.8266 21.4135 13.2124 20.4124 12.7931C19.4113 12.3738 18.3368 12.1579 17.2515 12.1579C16.1661 12.1579 15.0916 12.3738 14.0905 12.7931C13.0894 13.2124 12.1818 13.8266 11.4204 14.6C9.87147 16.1652 9.00266 18.2781 9.00266 20.48C9.00266 22.6819 9.87147 24.7948 11.4204 26.36L24.0027 39L36.5849 26.36C38.1338 24.7948 39.0027 22.6819 39.0027 20.48C39.0027 18.2781 38.1338 16.1652 36.5849 14.6C35.8215 13.8267 34.912 13.2127 33.9093 12.7938C32.9066 12.375 31.8306 12.1595 30.7438 12.16C29.6605 12.1667 28.5894 12.3895 27.5933 12.8153C26.5972 13.2412 25.6961 13.8615 24.9428 14.64L24.0027 15.52L23.0825 14.6Z" fill="#FFF3F0" stroke="#77280C"/>
<path d="M23.08 14.44C22.3188 13.6666 21.4113 13.0523 20.4104 12.6331C19.4095 12.2138 18.3352 11.9979 17.25 11.9979C16.1648 11.9979 15.0905 12.2138 14.0896 12.6331C13.0887 13.0523 12.1812 13.6666 11.42 14.44C9.87132 16.0052 9.00266 18.1181 9.00266 20.32C9.00266 22.5219 9.87132 24.6348 11.42 26.2L24 38.84L36.58 26.2C38.1287 24.6348 38.9973 22.5219 38.9973 20.32C38.9973 18.1181 38.1287 16.0052 36.58 14.44C35.8168 13.6667 34.9075 13.0527 33.9049 12.6338C32.9023 12.215 31.8265 11.9995 30.74 12C29.6581 12.003 28.5877 12.2221 27.5917 12.6446C26.5957 13.067 25.6941 13.6842 24.94 14.46L24 15.36L23.08 14.44Z" stroke="#77280C" stroke-linecap="round" stroke-linejoin="round"/>
</svg>
