<svg width="48" height="48" viewBox="0 0 48 48" fill="none" xmlns="http://www.w3.org/2000/svg">
<rect width="48" height="48" rx="10" fill="#BBA9D1"/>
<path d="M16.7047 27.705H16.1197C15.5347 27.4937 12.6097 26.3725 10.6272 25.82C10.5069 25.7855 10.3995 25.7162 10.3185 25.6208C10.2376 25.5253 10.1867 25.4081 10.1722 25.2837C10.1413 25.0578 10.1556 24.828 10.2141 24.6076C10.2727 24.3873 10.3745 24.1807 10.5135 24C10.6119 23.8688 10.7395 23.7623 10.8861 23.689C11.0328 23.6157 11.1945 23.5775 11.3585 23.5775C11.5255 23.5528 11.6952 23.5528 11.8622 23.5775C12.2478 23.7372 12.6088 23.9506 12.9347 24.2112L13.081 24.325L13.991 24.9587L14.836 25.56L16.9647 26.405C17.2572 26.535 18.4597 27.0875 18.3785 27.38C18.2972 27.6725 17.0297 27.6562 16.7535 27.6562L16.7047 27.705Z" fill="#FDE7FF"/>
<path opacity="0.23" d="M11.391 23.8862C11.5238 23.8972 11.6548 23.9245 11.781 23.9675C12.1886 24.1439 12.5711 24.3733 12.9185 24.65L14.7222 25.9012L18.281 27.4287C17.6439 27.5018 17.0006 27.5018 16.3635 27.4287H16.2822C15.486 27.12 12.7072 26.08 10.7735 25.5437C10.7183 25.5283 10.6688 25.497 10.6312 25.4536C10.5937 25.4103 10.5697 25.3569 10.5622 25.3C10.4993 24.9443 10.5749 24.578 10.7735 24.2762C10.8421 24.183 10.9332 24.1087 11.0384 24.0604C11.1436 24.0121 11.2593 23.9913 11.3747 24L11.391 23.8862ZM11.391 23.2525C11.1717 23.2512 10.9551 23.3004 10.7578 23.3962C10.5606 23.492 10.388 23.6319 10.2535 23.805C9.96217 24.2452 9.84622 24.7786 9.92849 25.3C9.9468 25.4947 10.0232 25.6793 10.1478 25.83C10.2724 25.9807 10.4395 26.0905 10.6272 26.145C12.6097 26.6975 15.5022 27.77 16.0872 28.0137C16.1895 28.0307 16.2938 28.0307 16.396 28.0137H16.8022C17.241 28.0137 20.7997 28.4687 20.8972 28.0137C20.1985 27.6075 17.6472 26.3887 17.176 26.0962L15.0635 25.2512L14.2185 24.6662C13.9183 24.4794 13.6306 24.2731 13.3572 24.0487L13.1947 24C12.8462 23.7079 12.4506 23.4771 12.0247 23.3175C11.831 23.2523 11.6279 23.2194 11.4235 23.22L11.391 23.2525Z" fill="#FCE2BA"/>
<path d="M37.6185 36.8537C34.7294 36.7948 31.8495 36.5068 29.006 35.9925H28.8435C26.687 35.701 24.5532 35.2612 22.4572 34.6762C20.5885 34.1075 18.7522 33.3762 16.981 32.6775L16.1197 32.385C14.4947 31.7187 13.081 31.1662 11.8297 30.63L11.4235 30.5C10.6753 30.2085 9.9478 29.8664 9.24599 29.4762C8.27099 28.875 7.99474 28.1112 8.40099 27.25C8.52294 26.988 8.72228 26.7696 8.97216 26.6243C9.22203 26.479 9.51043 26.4138 9.79849 26.4375H9.91224C10.0526 26.4212 10.1944 26.4212 10.3347 26.4375C12.6905 26.9946 14.9995 27.7335 17.241 28.6475L20.1335 28.745L26.6335 28.9725C25.1862 27.9204 23.5196 27.2093 21.7585 26.8925C21.1572 26.73 20.6047 26.5675 20.491 26.1287C20.3926 25.8008 20.3941 25.451 20.4954 25.1239C20.5967 24.7968 20.7932 24.5074 21.0597 24.2925C21.4708 24.0471 21.9472 23.9336 22.4247 23.9675C22.972 23.985 23.5162 24.0557 24.0497 24.1787C24.3422 24.2466 24.6299 24.3334 24.911 24.4387C25.5894 24.6725 26.293 24.8253 27.0072 24.8937C28.2154 25.0487 29.4103 25.2931 30.5822 25.625C34.2222 26.6 34.9372 28.42 35.4572 29.525C35.311 29.0862 35.4572 29.4112 35.4572 29.2487L35.5547 29.1025H37.9597C38.2522 29.1025 39.5847 28.7612 39.5847 29.1025C39.7192 31.7465 39.1589 34.3797 37.9597 36.74C37.9275 36.8072 37.8797 36.8659 37.8204 36.9111C37.7611 36.9563 37.6919 36.9868 37.6185 37V36.8537Z" fill="#EAE2F3"/>
<path d="M35.9122 29.0862C35.948 29.1024 35.9868 29.1107 36.026 29.1107C36.0652 29.1107 36.104 29.1024 36.1397 29.0862H35.9122Z" fill="#D67676"/>
<path fill-rule="evenodd" clip-rule="evenodd" d="M17.631 12.04C16.9568 11.3963 16.0606 11.0371 15.1285 11.0371C14.1964 11.0371 13.3001 11.3963 12.626 12.04C12.2943 12.3653 12.0309 12.7534 11.851 13.1817C11.6712 13.61 11.5785 14.0698 11.5785 14.5344C11.5785 14.9989 11.6712 15.4588 11.851 15.8871C12.0309 16.3154 12.2943 16.7035 12.626 17.0288L18.021 22.375L23.481 17.0125C23.8121 16.6886 24.0753 16.3019 24.2549 15.8749C24.4346 15.448 24.5271 14.9895 24.5271 14.5263C24.5271 14.063 24.4346 13.6045 24.2549 13.1776C24.0753 12.7506 23.8121 12.3639 23.481 12.04C22.8196 11.3823 21.9274 11.0091 20.9947 11C20.0541 11.0014 19.1509 11.3685 18.476 12.0238L18.086 12.43L17.631 12.04Z" fill="#ECAA96"/>
<path d="M40.316 29.3787C40.6207 30.7604 40.5133 32.2012 40.0072 33.5225C39.5981 34.8296 38.8853 36.0212 37.9272 37C33.2335 36.6966 28.5583 36.1542 23.9197 35.375C21.3522 34.9362 8.79099 29.4437 8.30349 29.1675C8.15373 28.9405 8.05626 28.683 8.01813 28.4137C7.98001 28.1445 8.00217 27.8701 8.08303 27.6104C8.16388 27.3507 8.30141 27.1123 8.48567 26.9122C8.66993 26.7122 8.89632 26.5556 9.14849 26.4537C10.5297 26.0475 14.0235 28.2737 16.3147 28.485C18.606 28.6962 23.6272 28.8912 25.496 28.8912C27.3647 28.8912 23.871 27.5912 22.9122 27.2662C21.9535 26.9412 20.5072 26.6162 20.1985 25.6412C19.8897 24.6662 20.881 24.0162 21.7097 24.0162C23.2156 24.2315 24.6962 24.5962 26.1297 25.105C28.1318 25.0399 30.1265 25.377 31.996 26.0962C33.5198 26.7206 34.7664 27.8749 35.506 29.3462C35.766 29.8987 40.0397 29.1675 40.316 29.3787Z" stroke="#493D57"/>
<path d="M9.79849 26.3888C9.21349 24.8125 10.156 24 11.2447 24C12.3335 24 13.4385 24.9913 15.226 26.1125C17.0799 27.1711 19.0078 28.0943 20.9947 28.875" stroke="#493D57"/>
<path d="M17.3222 12.8363C16.6473 12.1878 15.7476 11.8256 14.8116 11.8256C13.8756 11.8256 12.9759 12.1878 12.301 12.8363C11.6657 13.4886 11.3102 14.3632 11.3102 15.2738C11.3102 16.1843 11.6657 17.0589 12.301 17.7113L17.7447 23.1875L23.221 17.825C23.6268 17.4337 23.9318 16.9499 24.1101 16.4151C24.2883 15.8803 24.3345 15.3103 24.2447 14.7538C24.1454 14.198 23.9153 13.6738 23.5734 13.2246C23.2315 12.7753 22.7877 12.4138 22.2785 12.17C21.7737 11.9211 21.2161 11.7984 20.6535 11.8125C19.7046 11.8123 18.7938 12.1859 18.1185 12.8525L17.7447 13.2425L17.3222 12.8363Z" stroke="#77280C" stroke-linecap="round" stroke-linejoin="round"/>
</svg>
