<svg width="48" height="48" viewBox="0 0 48 48" fill="none" xmlns="http://www.w3.org/2000/svg">
<g clip-path="url(#clip0_121_116)">
<rect width="48" height="48" rx="10" fill="#6DAE4F"/>
<path d="M24 46C36.1503 46 46 36.1503 46 24C46 11.8497 36.1503 2 24 2C11.8497 2 2 11.8497 2 24C2 36.1503 11.8497 46 24 46Z" fill="#6DAE4F"/>
<path fill-rule="evenodd" clip-rule="evenodd" d="M34.3392 28.4868L33.2385 27.6651C33.2385 27.6651 32.7889 23.2934 31.9983 22.4562C30.5768 20.7723 29.5634 18.7828 29.0373 16.6428C28.6652 15.3561 28.4017 14.9065 27.239 14.8755C26.7748 14.9299 26.3511 15.166 26.0606 15.5321C25.7701 15.8982 25.6363 16.3644 25.6887 16.8288C25.7012 17.4156 25.753 18.0008 25.8437 18.5806C26.1674 20.1145 26.6345 21.6145 27.239 23.0609L26.8049 22.7198L16.1391 14.6585C15.9562 14.4817 15.7384 14.3451 15.4997 14.2573C15.261 14.1695 15.0066 14.1324 14.7528 14.1485C14.4989 14.1645 14.2512 14.2333 14.0255 14.3505C13.7997 14.4677 13.6009 14.6306 13.4417 14.829C13.2966 15.0332 13.1978 15.2666 13.1523 15.513C13.1068 15.7593 13.1156 16.0126 13.1781 16.2552C13.2378 16.4994 13.3489 16.728 13.5039 16.9258C13.659 17.1237 13.8545 17.2861 14.0773 17.4024L19.5652 21.5261L21.2085 22.7663L12.434 16.1622C12.252 15.9861 12.0354 15.8496 11.7979 15.7616C11.5604 15.6735 11.3072 15.6357 11.0543 15.6506C10.8016 15.6671 10.5553 15.7364 10.331 15.8538C10.1067 15.9713 9.9095 16.1344 9.75207 16.3327C9.60698 16.5369 9.50822 16.7704 9.4627 17.0167C9.41718 17.2631 9.42599 17.5164 9.48853 17.759C9.54262 18.0033 9.64982 18.2328 9.80254 18.431C9.95525 18.6293 10.1497 18.7915 10.3722 18.9062L15.8601 23.0298L19.1466 25.5103L12.0155 20.1464C11.7587 19.866 11.4162 19.6785 11.0416 19.6133C10.6671 19.548 10.2814 19.6087 9.94496 19.7858C9.6085 19.9629 9.34016 20.2464 9.18186 20.5921C9.02356 20.9378 8.98421 21.3262 9.06996 21.6966C9.12405 21.941 9.23125 22.1704 9.38397 22.3687C9.53668 22.5669 9.73116 22.7292 9.95361 22.8438L15.4415 26.9675L18.1855 29.0293L12.6976 24.9522C12.5164 24.7684 12.2985 24.6251 12.058 24.5316C11.8175 24.4381 11.56 24.3965 11.3023 24.4096C11.0536 24.4221 10.81 24.4849 10.5862 24.5942C10.3624 24.7034 10.163 24.8568 10.0001 25.0452C9.84619 25.2511 9.73992 25.4887 9.68898 25.7407C9.63804 25.9927 9.64371 26.2529 9.70557 26.5024C9.7584 26.7532 9.86468 26.9897 10.0172 27.1957C10.1697 27.4017 10.3648 27.5724 10.5892 27.6961L20.6039 35.2769C21.3255 35.8125 22.1478 36.197 23.0215 36.4074C23.8952 36.6179 24.8024 36.6499 25.6887 36.5016L27.1925 37.4008C28.6606 36.2663 30.0952 35.2652 31.1766 33.7576C32.4031 32.1215 33.443 30.3536 34.2771 28.4868H34.3392Z" fill="#DCF0CB"/>
<path fill-rule="evenodd" clip-rule="evenodd" d="M27.7506 23.4639L26.1073 22.2857Z" fill="#93D870"/>
<path d="M33.161 26.8435C32.9905 25.5568 32.8664 21.7121 32.2773 21.092C30.8061 19.9055 29.686 18.3405 29.0373 16.5653C28.6652 15.2786 28.4017 14.829 27.239 14.798C26.7748 14.8524 26.3511 15.0885 26.0606 15.4546C25.7701 15.8207 25.6364 16.2869 25.6887 16.7513C25.7012 17.3381 25.753 17.9233 25.8438 18.5031C26.1835 20.1186 26.65 21.7048 27.239 23.2469L16.1391 14.922C15.9586 14.7408 15.7414 14.6002 15.5022 14.5096C15.2629 14.419 15.0071 14.3805 14.7518 14.3966C14.4965 14.4127 14.2476 14.4832 14.0217 14.6032C13.7957 14.7232 13.598 14.89 13.4417 15.0925C13.3089 15.2991 13.2198 15.5306 13.18 15.7729C13.1401 16.0151 13.1502 16.263 13.2097 16.5012C13.2693 16.7394 13.377 16.9629 13.5262 17.1579C13.6754 17.3529 13.863 17.5152 14.0773 17.635L19.5652 21.7897L21.2085 23.0299L12.434 16.4258C12.252 16.2496 12.0354 16.1132 11.7979 16.0251C11.5604 15.9371 11.3072 15.8993 11.0543 15.9142C10.8012 15.9288 10.5542 15.9971 10.3296 16.1148C10.1051 16.2324 9.90817 16.3966 9.75209 16.5963C9.60794 16.801 9.50975 17.0344 9.46426 17.2806C9.41877 17.5268 9.42705 17.7799 9.48854 18.0225C9.54448 18.2681 9.65225 18.4989 9.80465 18.6994C9.95705 18.8999 10.1506 19.0656 10.3722 19.1852L15.8601 23.3089L19.1466 25.7893L12.0155 20.4099C11.8371 20.2278 11.6215 20.0863 11.3833 19.9953C11.1451 19.9044 10.8901 19.866 10.6357 19.8828C10.3804 19.8972 10.131 19.9654 9.90393 20.083C9.67684 20.2005 9.47716 20.3648 9.31802 20.565C9.17292 20.7692 9.07416 21.0026 9.02864 21.2489C8.98312 21.4953 8.99193 21.7486 9.05447 21.9912C9.11415 22.2354 9.22522 22.464 9.38027 22.6618C9.53532 22.8596 9.73079 23.0221 9.95362 23.1384L15.4415 27.2776L18.1855 29.3394L12.6976 25.2157C12.5161 25.0343 12.2973 24.8945 12.0563 24.8062C11.8154 24.7178 11.5581 24.683 11.3023 24.7041C11.0509 24.7214 10.8064 24.7937 10.5859 24.9158C10.3655 25.038 10.1746 25.2071 10.0268 25.4112C9.87889 25.6152 9.77764 25.8493 9.73018 26.0968C9.68272 26.3443 9.6902 26.5992 9.75209 26.8435C9.80788 27.0911 9.91547 27.3241 10.0678 27.5272C10.2201 27.7303 10.4136 27.8988 10.6357 28.0217L20.6039 35.2769C21.3255 35.8125 22.1478 36.197 23.0215 36.4075C23.8952 36.6179 24.8024 36.6499 25.6887 36.5016" stroke="#165209" stroke-linecap="round" stroke-linejoin="round"/>
<path fill-rule="evenodd" clip-rule="evenodd" d="M38.8659 29.2309L37.7807 28.4093C37.7807 28.4093 37.3157 24.0375 36.525 23.2004C35.1091 21.5128 34.0964 19.5246 33.564 17.3869C33.192 16.0847 33.0059 15.6506 31.7657 15.6196C31.535 15.6407 31.3111 15.7095 31.1083 15.8216C30.9055 15.9336 30.7282 16.0866 30.5875 16.2707C30.4333 16.4593 30.3204 16.6782 30.2563 16.9133C30.1922 17.1483 30.1783 17.3942 30.2155 17.635C30.2279 18.2217 30.2797 18.807 30.3705 19.3868C30.8046 21.6346 31.2697 23.4949 31.3317 23.6035L20.8364 15.7127C20.6535 15.5359 20.4357 15.3993 20.197 15.3115C19.9583 15.2237 19.7039 15.1866 19.4501 15.2027C19.1962 15.2187 18.9485 15.2875 18.7228 15.4047C18.497 15.5219 18.2982 15.6848 18.139 15.8832C17.9939 16.0874 17.8951 16.3208 17.8496 16.5672C17.8041 16.8135 17.8129 17.0668 17.8754 17.3094C17.9351 17.5536 18.0462 17.7822 18.2012 17.98C18.3563 18.1779 18.5517 18.3403 18.7746 18.4566L24.247 22.5803L25.9058 23.8205L17.1313 17.2319C16.9502 17.0482 16.7322 16.9049 16.4917 16.8114C16.2513 16.7178 15.9937 16.6763 15.7361 16.6893C15.4814 16.6981 15.2321 16.7649 15.0072 16.8846C14.7823 17.0044 14.5877 17.1738 14.4382 17.3802C14.2887 17.5865 14.1882 17.8242 14.1445 18.0752C14.1007 18.3263 14.1149 18.5839 14.1858 18.8287C14.2536 19.0695 14.3696 19.294 14.5269 19.4885C14.6841 19.6831 14.8792 19.8436 15.1005 19.9604L20.6039 24.0995L23.9059 26.5645L16.7127 21.2006C16.5295 21.0216 16.3104 20.8835 16.0699 20.7953C15.8294 20.7071 15.573 20.6709 15.3175 20.689C15.0626 20.7053 14.8139 20.7743 14.587 20.8917C14.3602 21.0091 14.1602 21.1724 13.9998 21.3711C13.861 21.5783 13.7672 21.8122 13.7245 22.0579C13.6818 22.3036 13.691 22.5555 13.7517 22.7973C13.8114 23.0415 13.9225 23.2701 14.0775 23.4679C14.2326 23.6658 14.4281 23.8282 14.6509 23.9445L20.1233 28.0682L22.8673 30.13L17.3948 26.0064C17.2214 25.8249 17.0113 25.6824 16.7786 25.5885C16.5458 25.4945 16.2957 25.4513 16.0449 25.4615C15.794 25.4718 15.5483 25.5354 15.324 25.648C15.0997 25.7607 14.9019 25.9198 14.7439 26.1149C14.59 26.3208 14.4837 26.5584 14.4328 26.8104C14.3818 27.0624 14.3875 27.3226 14.4494 27.5721C14.5052 27.8198 14.6127 28.0528 14.765 28.2558C14.9173 28.4589 15.1109 28.6274 15.333 28.7503L25.1461 36.0985C26.6142 36.9486 28.259 37.4474 29.9519 37.5558C30.5677 37.9373 31.2102 38.2741 31.8743 38.5635C33.8596 38.203 35.6302 37.0929 36.8196 35.4629C38.0771 33.6208 38.7866 31.4599 38.8659 29.2309Z" fill="#DDF6D1"/>
<path d="M15.6276 9.44959L16.1702 11.868M23.3168 12.4106L21.286 13.8368M20.2008 9.00002L18.6506 12.8447" stroke="#165209" stroke-linecap="round" stroke-linejoin="round"/>
<path fill-rule="evenodd" clip-rule="evenodd" d="M15.6276 9.44959L16.1702 11.868ZM23.3168 12.4106L21.286 13.8368ZM20.2008 9.00002L18.6506 12.8447ZM15.6276 9.44959L16.1702 11.868ZM23.3168 12.4106L21.286 13.8368ZM20.2008 9.00002L18.6506 12.8447Z" fill="#231F20"/>
<path d="M38.7574 29.2309C38.2637 28.7071 37.8883 28.0832 37.6567 27.4016C37.5327 26.89 37.5017 26.3629 37.3932 25.8513C37.3323 24.9134 37.0335 24.0064 36.525 23.2159C35.1091 21.5283 34.0964 19.5401 33.564 17.4024C33.192 16.0847 33.0059 15.6506 31.7657 15.6196C31.535 15.6407 31.3111 15.7095 31.1083 15.8216C30.9055 15.9336 30.7282 16.0866 30.5875 16.2707C30.4333 16.4593 30.3204 16.6782 30.2563 16.9133C30.1922 17.1483 30.1783 17.3942 30.2155 17.635C30.2279 18.2217 30.2797 18.807 30.3705 19.3868C30.8046 21.6346 31.2697 23.4949 31.3317 23.6035L20.8364 15.7127C20.6535 15.5359 20.4357 15.3993 20.197 15.3115C19.9583 15.2237 19.7039 15.1866 19.4501 15.2027C19.1962 15.2187 18.9485 15.2875 18.7228 15.4047C18.497 15.5219 18.2982 15.6848 18.139 15.8832C17.9939 16.0874 17.8951 16.3208 17.8496 16.5672C17.8041 16.8135 17.8129 17.0668 17.8754 17.3094C17.9351 17.5536 18.0462 17.7822 18.2012 17.98C18.3563 18.1779 18.5517 18.3403 18.7746 18.4566L24.247 22.5803L25.9058 23.8205L17.1313 17.2319C16.9502 17.0482 16.7322 16.9049 16.4917 16.8114C16.2513 16.7178 15.9937 16.6763 15.7361 16.6893C15.4814 16.6981 15.2321 16.7649 15.0072 16.8846C14.7823 17.0044 14.5877 17.1738 14.4382 17.3802C14.2887 17.5865 14.1882 17.8242 14.1445 18.0752C14.1007 18.3263 14.1149 18.5839 14.1858 18.8287C14.2536 19.0695 14.3696 19.294 14.5269 19.4885C14.6841 19.6831 14.8792 19.8436 15.1005 19.9604L20.6039 24.0995L23.9059 26.5645L16.7127 21.2006C16.5295 21.0216 16.3104 20.8835 16.0699 20.7953C15.8294 20.7071 15.573 20.6709 15.3175 20.689C15.0626 20.7053 14.8139 20.7743 14.587 20.8917C14.3602 21.0091 14.1602 21.1724 13.9998 21.3711C13.861 21.5783 13.7672 21.8122 13.7245 22.0579C13.6818 22.3036 13.691 22.5555 13.7517 22.7973C13.8114 23.0415 13.9225 23.2701 14.0775 23.4679C14.2326 23.6658 14.4281 23.8282 14.6509 23.9445L20.1233 28.0682L22.8673 30.13L17.3948 26.0064C17.2214 25.8249 17.0113 25.6824 16.7786 25.5885C16.5458 25.4945 16.2957 25.4513 16.0449 25.4615C15.794 25.4718 15.5483 25.5354 15.324 25.648C15.0997 25.7607 14.9019 25.9198 14.7439 26.1149C14.59 26.3208 14.4837 26.5584 14.4328 26.8104C14.3818 27.0624 14.3875 27.3226 14.4494 27.5721C14.5052 27.8198 14.6127 28.0528 14.765 28.2558C14.9173 28.4589 15.1109 28.6274 15.333 28.7503L25.1461 36.0985C25.9579 36.7104 26.9039 37.1196 27.9056 37.2922C28.3397 37.3853 28.8047 37.4163 29.3163 37.5248C30.0578 37.6392 30.7753 37.8749 31.4402 38.2224C31.6772 38.3456 31.9365 38.42 32.2028 38.4413C32.469 38.4626 32.7368 38.4303 32.9904 38.3464C34.6985 37.7632 36.1937 36.6837 37.2847 35.2459C38.3212 33.839 38.915 32.155 38.9899 30.4091C39.0301 30.002 38.9492 29.5922 38.7574 29.2309Z" stroke="#165209" stroke-linecap="round" stroke-linejoin="round"/>
</g>
<defs>
<clipPath id="clip0_121_116">
<rect width="48" height="48" rx="10" fill="white"/>
</clipPath>
</defs>
</svg>
