<svg width="48" height="48" viewBox="0 0 48 48" fill="none" xmlns="http://www.w3.org/2000/svg">
<rect width="48" height="48" rx="10" fill="#378FE9"/>
<path fill-rule="evenodd" clip-rule="evenodd" d="M23.0781 20.613H11.6992C11.3312 20.6096 10.9663 20.6821 10.6276 20.8261C10.2889 20.9702 9.98353 21.1826 9.73069 21.4501C9.47784 21.7176 9.28295 22.0344 9.15822 22.3807C9.03348 22.727 8.98159 23.0953 9.00578 23.4626C9.05109 24.1962 9.38395 24.8824 9.93209 25.372C10.4802 25.8617 11.1994 26.1154 11.9334 26.078H12.4214C11.7743 26.0521 11.1435 26.2843 10.6677 26.7236C10.1918 27.1628 9.90996 27.7731 9.88408 28.4201C9.8582 29.0672 10.0904 29.698 10.5297 30.1739C10.9689 30.6497 11.5792 30.9316 12.2262 30.9574C11.8465 31.2414 11.5578 31.6298 11.3953 32.0752C11.2328 32.5205 11.2036 33.0036 11.3113 33.4653C11.4189 33.9271 11.6588 34.3474 12.0015 34.675C12.3443 35.0026 12.775 35.2232 13.2411 35.3099C12.9452 35.8307 12.8547 36.4433 12.9874 37.0275C13.1336 37.5995 13.4705 38.1046 13.9424 38.4594C14.4143 38.8143 14.9931 38.9976 15.5833 38.9792H22.6096C23.5317 38.9791 24.45 38.861 25.3421 38.6279L29.7531 37.3397H35.6084C38.6922 37.2226 39.512 23.1113 35.6084 23.1113H33.9299C33.6567 23.1113 33.481 22.5258 32.7198 21.706C31.5878 20.4959 30.3191 18.9345 29.4213 18.0367C27.2502 16.1519 25.4727 13.857 24.1906 11.2836C23.4684 9.72216 23.3903 9 21.8875 9C21.3122 9.10419 20.7953 9.41638 20.4354 9.8771C20.0755 10.3378 19.8976 10.9149 19.9357 11.4983C19.9357 12.318 20.1114 13.1378 20.248 13.9575C20.9078 16.3491 21.9279 18.6262 23.2732 20.7106" fill="#D0E8FF"/>
<path d="M23.0781 20.6131H11.6992C10.9634 20.6246 10.262 20.9262 9.74746 21.4523C9.3772 21.8601 9.13587 22.3682 9.05383 22.9129C8.97179 23.4575 9.05272 24.0142 9.28643 24.5129C9.52014 25.0116 9.89618 25.4301 10.3672 25.7155C10.8382 26.001 11.3832 26.1407 11.9334 26.117H12.4214C12.0995 26.1118 11.7799 26.1713 11.4815 26.292C11.1832 26.4127 10.9121 26.5923 10.6845 26.8199C10.4569 27.0475 10.2774 27.3185 10.1566 27.6169C10.0359 27.9153 9.97639 28.2349 9.98167 28.5568C9.9797 29.1714 10.2098 29.7641 10.6259 30.2164C11.042 30.6687 11.6136 30.9473 12.2262 30.9965C11.8419 31.2742 11.5494 31.6604 11.3859 32.1055C11.2225 32.5506 11.1957 33.0343 11.3089 33.4947C11.4174 33.9587 11.6606 34.3804 12.0078 34.7067C12.355 35.0331 12.7908 35.2497 13.2606 35.3294C12.9648 35.8502 12.8743 36.4628 13.0069 37.047C13.1531 37.619 13.49 38.1241 13.9619 38.479C14.4338 38.8338 15.0126 39.0171 15.6028 38.9987H22.6292C23.5506 38.9896 24.4678 38.8716 25.3616 38.6474L29.7726 37.3593H35.628C38.7118 37.2617 39.5315 23.1504 35.628 23.1504H33.9494C33.6762 23.1504 33.5005 22.5648 32.7393 21.7451C31.5878 20.535 30.3191 18.954 29.4994 18.0757C27.3283 16.1909 25.5507 13.896 24.2686 11.3226C23.5465 9.74168 23.4684 8.98049 21.9656 9.03904C21.3758 9.11222 20.8391 9.41633 20.4732 9.88466C20.1073 10.353 19.9421 10.9473 20.0138 11.5373C20.0138 12.318 20.1114 13.1182 20.2285 13.899C20.8802 16.2812 21.901 18.5467 23.2537 20.6131" stroke="#004182" stroke-linecap="round" stroke-linejoin="round"/>
</svg>
