<svg width="48" height="48" viewBox="0 0 48 48" fill="none" xmlns="http://www.w3.org/2000/svg">
<rect width="48" height="48" rx="10" fill="#F5BB5C"/>
<path fill-rule="evenodd" clip-rule="evenodd" d="M25.2121 39H21.1211C20.7621 38.9917 20.42 38.8454 20.166 38.5915C19.9121 38.3375 19.7658 37.9954 19.7575 37.6364V34.2273H26.5757V37.6364C26.5674 37.9954 26.4211 38.3375 26.1671 38.5915C25.9132 38.8454 25.5711 38.9917 25.2121 39Z" fill="#FFE1B2"/>
<path fill-rule="evenodd" clip-rule="evenodd" d="M19.7575 34.974V34.2922C19.775 33.4213 19.6432 32.5537 19.3679 31.7273C19.0304 30.9857 18.5875 30.2967 18.053 29.6818C17.1143 28.912 16.355 27.9467 15.8279 26.8532C15.3007 25.7598 15.0186 24.5644 15.001 23.3507C15.001 21.1807 15.863 19.0996 17.3974 17.5652C18.9318 16.0308 21.0129 15.1688 23.1828 15.1688C25.3528 15.1688 27.4339 16.0308 28.9682 17.5652C30.5026 19.0996 31.3646 21.1807 31.3646 23.3507C31.3327 24.6049 31.0253 25.8367 30.4642 26.9589C29.9031 28.0811 29.1021 29.0661 28.1179 29.8442L28.0205 29.9253C27.8427 30.0784 27.6846 30.2529 27.5497 30.4448C27.2912 30.8051 27.0938 31.2055 26.9653 31.6299C26.6977 32.4749 26.5662 33.3572 26.5757 34.2435V34.974" fill="#FCF0DE"/>
<path d="M15.0013 11.7273L16.7058 13.9838M32.0305 11.7273L30.3097 13.9838M23.1181 9V12.4091" stroke="#5D3B01" stroke-linecap="round" stroke-linejoin="round"/>
<path d="M21.738 17.0033C20.5399 17.2336 19.4473 17.8425 18.6211 18.7403C17.7628 19.584 17.1606 20.6533 16.8841 21.8247" stroke="white" stroke-width="2" stroke-linecap="round" stroke-linejoin="round"/>
<path d="M25.2121 39H21.1211C20.7621 38.9917 20.42 38.8454 20.166 38.5915C19.9121 38.3375 19.7658 37.9954 19.7575 37.6364V34.2273H26.5757V37.6364C26.5674 37.9954 26.4211 38.3375 26.1671 38.5915C25.9132 38.8454 25.5711 38.9917 25.2121 39Z" stroke="#5D3B01" stroke-linecap="round" stroke-linejoin="round"/>
<path d="M19.7575 34.974V34.2922C19.775 33.4213 19.6432 32.5537 19.3679 31.7273C19.2209 31.2897 18.9953 30.8826 18.7023 30.526C18.4287 30.1305 18.113 29.7658 17.7608 29.4383C17.4228 29.1436 17.108 28.8234 16.8192 28.4805C16.2378 27.7734 15.7821 26.9717 15.4718 26.1104C15.1453 25.2276 14.9856 24.2918 15.001 23.3506C15.0189 22.0616 15.3436 20.7953 15.9483 19.6567C16.5529 18.5181 17.42 17.5398 18.4779 16.803C19.5358 16.0662 20.754 15.5919 22.0316 15.4195C23.3092 15.2471 24.6095 15.3814 25.8248 15.8115C27.0402 16.2416 28.1356 16.955 29.0204 17.8926C29.9053 18.8302 30.554 19.9651 30.913 21.2033C31.272 22.4415 31.3308 23.7474 31.0847 25.0129C30.8386 26.2784 30.2946 27.4671 29.4978 28.4805C29.0609 29.0202 28.5715 29.515 28.0367 29.9578C27.8485 30.116 27.6796 30.2958 27.5335 30.4935C27.2862 30.8581 27.0947 31.2575 26.9653 31.6786C26.69 32.5218 26.5583 33.4053 26.5757 34.2922V34.974" stroke="#5D3B01" stroke-linecap="round" stroke-linejoin="round"/>
</svg>
