<svg width="48" height="48" viewBox="0 0 48 48" fill="none" xmlns="http://www.w3.org/2000/svg">
<rect width="48" height="48" rx="10" fill="#44BFD3"/>
<path d="M24 39C32.2843 39 39 32.2843 39 24C39 15.7157 32.2843 9 24 9C15.7157 9 9 15.7157 9 24C9 32.2843 15.7157 39 24 39Z" fill="#D5F9FE" stroke="#104E58"/>
<path d="M22.0875 20.025C19.725 18.6562 16.725 19.2375 15.0562 21.3937L15.7687 22.2375L16.1812 22.0125C17.9062 21.0562 19.9125 20.7562 21.8437 21.1687L22.2375 20.1375L22.0875 20.0437V20.025Z" fill="#104E58"/>
<path d="M32.775 21.375C31.0875 19.2375 28.0875 18.6562 25.7437 20.0062L25.5938 20.1L25.9875 21.1312C27.9187 20.7187 29.925 21.0375 31.65 21.975L32.0625 22.2L32.775 21.3562V21.375Z" fill="#104E58"/>
<path d="M18.975 15.4313C17.8875 15.2813 15.6375 15.7688 14.4937 17.5125" stroke="#104E58" stroke-linecap="round"/>
<path d="M28.6875 15.4313C29.775 15.2813 32.025 15.7688 33.1688 17.5125" stroke="#104E58" stroke-linecap="round"/>
<path d="M30.525 25.875H17.475C16.5187 25.875 15.8812 26.8312 16.2562 27.7125C17.3437 30.2625 19.4062 33.375 24 33.375C28.5937 33.375 30.6375 30.2625 31.7437 27.7125C32.1187 26.85 31.4812 25.875 30.525 25.875Z" fill="#2199AC"/>
<path d="M24 29.625C21.15 29.625 18.375 31.5 20.25 32.4375C21.5 33.0625 22.75 33.375 24 33.375C25.25 33.375 26.5 33.0625 27.75 32.4375C29.625 31.5 26.85 29.625 24 29.625Z" fill="#D5F9FE"/>
<path d="M30.975 24.9375H17.025C15.7688 24.9375 14.8313 26.1563 15.2625 27.3938C15.7688 28.875 16.5563 30.7688 17.9063 32.3063C19.275 33.8813 21.2438 35.0625 24.0188 35.0625C26.7938 35.0625 28.7438 33.8813 30.1313 32.3063C31.4813 30.7688 32.2687 28.875 32.775 27.3938C33.1875 26.1563 32.25 24.9375 31.0125 24.9375H30.975ZM28.7063 31.0688C27.6375 32.2875 26.1563 33.1875 24 33.1875C21.8438 33.1875 20.3813 32.3063 19.2938 31.0688C18.2063 29.8125 17.5125 28.2188 17.025 26.8125H30.9375C30.45 28.2188 29.775 29.8313 28.6687 31.0688H28.7063Z" fill="#104E58"/>
</svg>
