<svg width="16" height="16" viewBox="0 0 16 16" fill="none" xmlns="http://www.w3.org/2000/svg">
<path d="M0 2.5C0 1.11929 1.11929 0 2.5 0H13.5C14.8807 0 16 1.11929 16 2.5V13.5C16 14.8807 14.8807 16 13.5 16H2.5C1.11929 16 0 14.8807 0 13.5V2.5Z" fill="#0077B7"/>
<path fill-rule="evenodd" clip-rule="evenodd" d="M9.61111 4.38887C9.61111 3.55554 8.78778 2.99998 8.14445 2.99998C7.69667 2.99998 7.66167 3.33998 7.59278 4.0111C7.56222 4.30554 7.52556 4.66332 7.44444 5.08332C7.23 6.19554 6.48889 7.61665 5.78 8.04165V11.3333C5.77778 12.5833 6.19444 13 8 13H10.0961C11.305 13 11.5978 12.2039 11.7067 11.9089L11.7139 11.8889C11.7772 11.7189 11.9128 11.585 12.0683 11.4333C12.2406 11.2633 12.4372 11.0705 12.5833 10.7778C12.7561 10.4317 12.7333 10.1239 12.7128 9.84999C12.7 9.68387 12.6883 9.53054 12.7222 9.38887C12.7578 9.23887 12.8033 9.12499 12.8472 9.0161C12.9267 8.81832 13 8.63499 13 8.27776C13 7.44443 12.5844 6.88999 11.7139 6.88999H9.38889C9.38889 6.88999 9.61111 5.22221 9.61111 4.38887ZM3.83333 7.44443C3.61232 7.44443 3.40036 7.53223 3.24408 7.68851C3.0878 7.84479 3 8.05675 3 8.27776V12.1667C3 12.3877 3.0878 12.5996 3.24408 12.7559C3.40036 12.9122 3.61232 13 3.83333 13C4.05435 13 4.26631 12.9122 4.42259 12.7559C4.57887 12.5996 4.66667 12.3877 4.66667 12.1667V8.27776C4.66667 8.05675 4.57887 7.84479 4.42259 7.68851C4.26631 7.53223 4.05435 7.44443 3.83333 7.44443Z" fill="white"/>
<path d="M3 6.08313C3 5.623 3.373 5.25 3.83313 5.25C4.29325 5.25 4.66625 5.623 4.66625 6.08313C4.66625 6.54325 4.29325 6.91625 3.83313 6.91625C3.373 6.91625 3 6.54325 3 6.08313Z" fill="white"/>
</svg>
