<svg width="128" height="128" viewBox="0 0 128 128" fill="none" xmlns="http://www.w3.org/2000/svg">
<path d="M0 20C0 8.95431 8.95431 0 20 0H108C119.046 0 128 8.95431 128 20V108C128 119.046 119.046 128 108 128H20C8.95431 128 0 119.046 0 108V20Z" fill="#0077B7"/>
<path fill-rule="evenodd" clip-rule="evenodd" d="M76.8889 35.111C76.8889 28.4443 70.3022 23.9999 65.1556 23.9999C61.5733 23.9999 61.2933 26.7199 60.7422 32.0888C60.4978 34.4443 60.2044 37.3065 59.5556 40.6665C57.84 49.5643 51.9111 60.9332 46.24 64.3332V90.6665C46.2222 100.667 49.5556 104 64 104H80.7689C90.44 104 92.7822 97.631 93.6533 95.271L93.7111 95.111C94.2178 93.751 95.3022 92.6799 96.5467 91.4666C97.9244 90.1066 99.4978 88.5643 100.667 86.2221C102.049 83.4532 101.867 80.991 101.702 78.7999C101.6 77.471 101.507 76.2443 101.778 75.111C102.062 73.911 102.427 72.9999 102.778 72.1288C103.413 70.5465 104 69.0799 104 66.2221C104 59.5554 100.676 55.1199 93.7111 55.1199H75.1111C75.1111 55.1199 76.8889 41.7777 76.8889 35.111ZM30.6667 59.5554C28.8986 59.5554 27.2029 60.2578 25.9526 61.5081C24.7024 62.7583 24 64.454 24 66.2221V97.3332C24 99.1013 24.7024 100.797 25.9526 102.047C27.2029 103.297 28.8986 104 30.6667 104C32.4348 104 34.1305 103.297 35.3807 102.047C36.631 100.797 37.3333 99.1013 37.3333 97.3332V66.2221C37.3333 64.454 36.631 62.7583 35.3807 61.5081C34.1305 60.2578 32.4348 59.5554 30.6667 59.5554Z" fill="white"/>
<path d="M24 48.665C24 44.984 26.984 42 30.665 42C34.346 42 37.33 44.984 37.33 48.665C37.33 52.346 34.346 55.33 30.665 55.33C26.984 55.33 24 52.346 24 48.665Z" fill="white"/>
</svg>
